<?xml version="1.0" encoding="iso-8859-1"?>
<!-- Generator: Adobe Illustrator 19.0.0, SVG Export Plug-In . SVG Version: 6.00 Build 0)  -->
<svg version="1.1" id="Layer_1" xmlns="http://www.w3.org/2000/svg" xmlns:xlink="http://www.w3.org/1999/xlink" x="0px" y="0px"
	 viewBox="0 0 504.123 504.123" style="enable-background:new 0 0 504.123 504.123;" xml:space="preserve">
<circle style="fill:#324A5E;" cx="252.062" cy="252.062" r="252.062"/>
<polyline style="fill:#84DBFF;" points="424.566,209.132 355.249,134.302 154.388,134.302 85.071,209.132 "/>
<polyline style="fill:#54C0EB;" points="85.071,209.132 254.818,416.295 424.566,209.132 "/>
<polyline style="fill:#84DBFF;" points="143.754,209.132 254.818,416.295 365.883,209.132 "/>
<polyline style="fill:#54C0EB;" points="365.883,209.132 320.591,134.302 189.046,134.302 143.754,209.132 "/>
<polyline style="fill:#84DBFF;" points="296.96,209.132 279.631,134.302 230.006,134.302 212.677,209.132 "/>
<polyline style="fill:#54C0EB;" points="212.677,209.132 254.818,416.295 296.96,209.132 "/>
<g>
	<path style="fill:#FFFFFF;" d="M92.16,239.065c0-22.449-6.302-28.751-28.751-28.751c22.449,0,28.751-6.302,28.751-28.751
		c0,22.449,6.302,28.751,28.751,28.751C98.462,210.314,92.16,216.615,92.16,239.065z"/>
	<path style="fill:#FFFFFF;" d="M356.037,168.96c0-26.782-7.483-34.265-34.265-34.265c26.782,0,34.265-7.483,34.265-34.265
		c0,26.782,7.483,34.265,34.265,34.265C363.52,134.302,356.037,142.178,356.037,168.96z"/>
	<path style="fill:#FFFFFF;" d="M152.812,168.96c0-26.782-7.483-34.265-34.265-34.265c26.782,0,34.265-7.483,34.265-34.265
		c0,26.782,7.483,34.265,34.265,34.265C160.295,134.302,152.812,142.178,152.812,168.96z"/>
</g>
<g>
</g>
<g>
</g>
<g>
</g>
<g>
</g>
<g>
</g>
<g>
</g>
<g>
</g>
<g>
</g>
<g>
</g>
<g>
</g>
<g>
</g>
<g>
</g>
<g>
</g>
<g>
</g>
<g>
</g>
</svg>
